<svg xmlns="http://www.w3.org/2000/svg" viewBox="0 0 256 256">
  <defs>
    <linearGradient id="heat" x1="0" x2="0" y1="0" y2="1">
      <stop offset="0" stop-color="#fde68a"/>
      <stop offset="1" stop-color="#f97316"/>
    </linearGradient>
    <linearGradient id="cool" x1="0" x2="1" y1="0" y2="1">
      <stop offset="0" stop-color="#93c5fd"/>
      <stop offset="1" stop-color="#2563eb"/>
    </linearGradient>
  </defs>
  <rect width="256" height="256" rx="48" fill="#0f172a"/>
  <!-- Thermometer -->
  <rect x="104" y="28" width="48" height="140" rx="24" fill="#e5e7eb"/>
  <rect x="116" y="44" width="24" height="104" rx="12" fill="url(#heat)"/>
  <circle cx="128" cy="192" r="44" fill="url(#heat)"/>
  <circle cx="128" cy="192" r="28" fill="#0f172a"/>
  <!-- Fan blades -->
  <circle cx="196" cy="196" r="36" fill="url(#cool)"/>
  <circle cx="196" cy="196" r="10" fill="#0f172a"/>
  <path d="M196 160c14 0 20 16 8 24l-18 12" fill="#0f172a"/>
  <path d="M232 196c0 14-16 20-24 8l-12-18" fill="#0f172a"/>
  <path d="M196 232c-14 0-20-16-8-24l18-12" fill="#0f172a"/>
  <path d="M160 196c0-14 16-20 24-8l12 18" fill="#0f172a"/>
</svg>
